Fly_normalized_Motion_pl13
version=1
nRows=16
nColumns=43
inDegrees=yes
endheader
time		pelvis_tilt		pelvis_list		pelvis_rotation		pelvis_tx		pelvis_ty		pelvis_tz		hip_flexion_r		hip_adduction_r		hip_rotation_r		knee_angle_r		ankle_angle_r		subtalar_angle_r		mtp_angle_r		hip_flexion_l		hip_adduction_l		hip_rotation_l		knee_angle_l		ankle_angle_l		subtalar_angle_l		mtp_angle_l		lumbar_extension		lumbar_bending		lumbar_rotation		neck_flexion		neck_lateral_bending		neck_rotation		arm_flex_r		arm_add_r		arm_rot_r		elbow_flex_r		pro_sup_r		wrist_flex_r		wrist_dev_r		hand_finger_flex_r		arm_flex_l		arm_add_l		arm_rot_l		elbow_flex_l		pro_sup_l		wrist_flex_l		wrist_dev_l		hand_finger_flex_l		
1.180000		0.055252		-18.136990		88.704258		0.054524		1.832838		1.511776		51.984162		-2.775277		2.819776		-124.779731		-10.363329		-2.020937		23.617292		69.103472		-5.615808		5.058352		-123.247171		-8.603256		6.059508		24.075891		-33.815398		-0.921927		5.092759		22.398025		3.420691		-4.827593		97.352185		-21.264750		13.508348		69.348155		115.638621		0.757607		-13.411680		-5.530773		99.831253		-13.034984		26.910937		53.636803		109.975349		-15.162294		-2.032832		-4.844941		
1.184217		0.196398		-17.909191		88.709563		0.054533		1.833389		1.503309		51.799925		-2.416667		2.900522		-123.940827		-13.723962		-2.481617		21.795118		69.455963		-5.806099		4.961948		-122.495665		-8.716349		4.483415		23.519569		-33.945090		-0.873834		5.235934		22.115201		3.476274		-5.026654		96.705120		-21.469025		13.664634		69.073107		115.774677		0.807061		-13.474358		-5.737362		99.239926		-13.238904		27.244633		53.520265		109.859627		-15.086795		-2.091217		-5.097264		
1.188434		0.250293		-17.619487		88.763553		0.054501		1.833832		1.494968		51.627177		-2.159105		3.095677		-123.138820		-16.804869		-2.316251		18.247856		69.788561		-5.852518		4.844660		-121.791364		-8.540728		2.893426		21.922897		-34.172387		-0.888322		5.248820		21.908271		3.581434		-5.200185		96.050565		-21.676994		13.786957		68.788705		115.878785		0.837705		-13.520663		-6.082762		98.712420		-13.499323		27.601402		53.402611		109.832816		-14.809351		-2.122649		-5.572857		
1.192652		0.322459		-17.270746		88.752380		0.054672		1.834263		1.486815		51.475383		-1.804640		3.378384		-122.341003		-19.611388		-1.742949		13.834813		70.093052		-5.999675		4.718527		-121.121465		-8.161404		1.275227		19.766475		-34.514010		-0.923677		5.298621		21.747115		3.710268		-5.381059		95.494270		-21.897662		14.020754		68.472977		116.011493		0.943065		-13.539429		-6.442777		98.202930		-13.856533		27.913660		53.356217		109.908992		-14.457094		-2.153281		-6.129815		
1.196869		0.515427		-16.864205		88.737531		0.055075		1.834664		1.478930		51.343882		-1.265596		3.683504		-121.500962		-22.720821		-0.870378		12.985585		70.387130		-6.244594		4.745287		-120.475560		-7.851804		-0.320435		19.467241		-34.986658		-0.864854		5.453907		21.737634		3.674012		-5.501589		95.021645		-22.080055		14.253099		68.130034		116.130688		0.927228		-13.515891		-6.468251		97.741402		-14.230670		28.166595		53.286313		110.079626		-14.335335		-2.152949		-6.037895		
1.201086		0.661607		-16.434049		88.691280		0.055499		1.835032		1.471003		51.211801		-0.736163		4.005370		-120.732389		-25.026925		0.145573		12.027442		70.638040		-6.484363		4.638479		-119.814329		-7.603062		-2.297160		18.955134		-35.509527		-0.862832		5.591437		21.767278		3.660411		-5.614797		94.524191		-22.297327		14.495422		67.809895		116.278489		0.884652		-13.523734		-6.507940		97.208976		-14.622527		28.310644		53.287617		110.232193		-14.185119		-2.152198		-5.843882		
1.205303		0.784328		-16.124186		88.620451		0.055829		1.835112		1.462841		51.197602		-0.231363		4.291365		-120.076938		-26.201623		1.301012		11.083892		70.979394		-6.715659		4.467222		-119.134362		-7.380287		-4.365954		18.206038		-35.885160		-0.892185		5.772394		21.810925		3.693352		-5.749272		93.860196		-22.600128		14.677925		67.591015		116.423841		0.843161		-13.567128		-6.548624		96.515560		-14.926663		28.291439		53.318937		110.337341		-14.011706		-2.163329		-5.544673		
1.209520		0.828223		-16.367935		88.492427		0.055818		1.833936		1.454728		51.811549		0.174839		4.615302		-119.649903		-25.792132		2.755403		10.118441		71.985637		-6.865335		4.206734		-118.479086		-7.627253		-6.616377		16.517620		-35.561526		-0.987171		6.074652		21.684364		3.750888		-5.957096		92.876413		-23.142901		14.802888		67.552365		116.611915		0.845973		-13.598149		-6.591987		95.505822		-14.877595		27.875115		53.179590		110.633955		-13.766202		-2.210584		-4.953543		
1.213737		0.992156		-16.842423		88.449977		0.055862		1.832286		1.445943		52.627898		0.597261		4.588430		-119.263084		-24.891874		3.617773		9.726258		73.135230		-7.050143		4.143788		-117.848551		-7.130755		-8.142821		14.868637		-34.924510		-1.002516		6.404775		21.508682		4.145060		-6.262821		91.444533		-23.795302		14.738726		67.810424		116.670235		0.784247		-13.678849		-6.676097		94.221070		-14.872058		27.474189		53.236506		111.109267		-13.658949		-2.396090		-4.450493		
1.217955		1.140322		-17.409999		88.371012		0.055869		1.830386		1.437064		53.543725		0.988556		4.451894		-118.978405		-23.343922		4.031656		10.074255		74.373969		-7.222409		4.064326		-117.209496		-6.511757		-9.404392		12.632829		-34.192021		-1.040366		6.762590		21.408689		4.510232		-6.503904		89.921540		-24.473142		14.621624		68.113002		116.695010		0.702792		-13.759311		-6.819611		92.810765		-14.814646		26.893458		53.302409		111.873773		-13.599708		-2.603155		-3.903379		
1.222172		1.208849		-18.002525		88.244321		0.055797		1.828343		1.428566		54.569605		1.324188		4.331891		-118.769340		-21.526336		4.217292		11.589478		75.662838		-7.307380		3.911354		-116.547910		-5.823602		-10.638962		8.313905		-33.482640		-1.149965		7.094037		21.360650		4.908976		-6.715979		88.472500		-25.119554		14.503390		68.352470		116.758253		0.645448		-13.803054		-7.100953		91.370496		-14.658384		25.967145		53.323260		113.344496		-13.451362		-2.778884		-3.017516		
1.226389		1.416963		-18.032549		88.245195		0.055939		1.827198		1.420505		55.005888		1.714230		3.946621		-118.571128		-19.414765		3.969015		12.173323		76.411684		-7.360006		4.007545		-115.807200		-5.618759		-11.637383		7.955427		-33.549643		-1.101504		7.349932		21.605869		5.154521		-6.853930		87.429784		-25.584105		14.452051		68.345595		116.809092		0.470258		-13.896358		-7.220070		90.407837		-14.853208		25.823033		53.265033		113.270198		-13.517276		-2.871091		-3.009166		
1.230606		1.483607		-17.839595		88.204212		0.056031		1.826257		1.413035		55.349319		1.996104		3.688723		-118.451585		-17.663722		3.555437		12.691865		76.935539		-7.310932		3.968759		-115.009001		-5.544336		-12.615710		7.527168		-33.955188		-1.145857		7.456427		21.904864		5.256593		-6.913629		86.659397		-25.856122		14.431426		68.138181		116.884504		0.370280		-13.944510		-7.317059		89.582723		-15.175036		25.616281		53.188306		113.262294		-13.517360		-3.013770		-2.957466		
1.234823		1.440998		-17.361468		88.140518		0.056061		1.825640		1.405883		55.476375		2.151889		3.482459		-118.377320		-16.161296		2.831493		13.066627		77.124465		-7.177736		3.810902		-114.147528		-5.488046		-13.571235		7.044465		-34.749938		-1.261108		7.422488		22.286646		5.233173		-6.894866		86.095681		-25.957471		14.391089		67.746140		116.978316		0.359952		-14.024678		-7.374269		88.828382		-15.607917		25.320521		53.156334		113.184859		-13.479335		-3.168502		-2.871295		
1.239040		1.315811		-16.664491		88.108368		0.055820		1.825285		1.398763		55.426978		2.130068		3.303436		-118.309814		-15.094095		1.685344		13.155937		77.018280		-6.936683		3.570337		-113.216206		-5.431421		-14.467919		6.453865		-35.825489		-1.376529		7.241200		22.691454		5.080887		-6.793945		85.654767		-25.920460		14.345920		67.182438		117.110897		0.448436		-14.181885		-7.368836		88.043814		-16.121828		24.926174		53.183558		112.958307		-13.455907		-3.302160		-2.772514		
1.243258		1.236932		-16.119044		88.081455		0.055509		1.824247		1.391726		55.681809		2.126522		3.198988		-118.296532		-14.626514		0.894360		13.075467		77.111062		-6.712746		3.460195		-112.323661		-5.335860		-14.824419		6.193389		-36.688374		-1.444860		7.165686		22.958568		4.966477		-6.734172		85.122755		-26.028086		14.373255		66.668419		117.175040		0.513815		-14.218238		-7.341382		87.251640		-16.549514		24.719674		53.052468		112.803013		-13.512665		-3.325280		-2.764704		
